<svg height="24" viewBox="0 0 24 24" width="24" xmlns="http://www.w3.org/2000/svg">
    <path clip-rule="evenodd" d="m15.0946 4.58779-.0156.0449-.6402 2.17408c-.2862-.09794-.6047-.15591-.9556-.15591-.0177 0-.0353.00015-.0528.00046-.3786.00655-.7278.08344-1.0428.21486-.1029-.06515-.211-.12467-.3242-.17764-.4058-.18994-.8778-.29568-1.4168-.27513-.2871.01041-.5643.05937-.82744.1413-.01337-.03274-.0254-.06361-.03597-.09248l-1.03433-3.29222-.01042-.02983c-.21877-.62638-.65537-1.24355-1.2774-1.6573-.67182-.44686-1.70097-.718891-2.75473-.20883l-.00737.00357-.00735.00363c-1.61476.798-1.90168 2.64883-1.55322 3.88646.56382 2.17355 1.23406 4.22294 1.94598 6.27869-.14328.2224-.30821.4946-.47159.7984l-.00441.0082-.00434.0082c-.01527.0291-.03315.0609-.06833.123l-.01832.032c-.10664.1862-.36089.6299-.46426 1.2117-.11617.6539-.02182 1.2906.19159 1.914.16933.5009.37795.9646.66712 1.5395.44364.8825.9781 1.385 1.34274 1.7278l.01585.0149.00149.0014c.37837.3572.53135.5522.60837.6905.05109.0917.10101.2115.10101.4834 0 1.6569 1.34315 3 3 3h4.30493c1.6568 0 3-1.3431 3-3 0-.3857.1288-.7445.4651-1.5229l.0242-.0558c.215-.4971.5194-1.2005.6755-2.0051.1675-.8633.5961-3.0072.7743-3.898l.0002-.001.0003-.0018.0003-.0013.0743-.3717c.1753-.6346.4185-1.6228.5617-2.27797l.7621-3.52908c.1274-.59131.1127-1.34842-.1245-2.03748-.2387-.69351-.9781-1.92199-2.569-1.92199-1.6071 0-2.521 1.30424-2.8361 2.21251zm-7.45152 12.78171c.84052.7932 1.33819 1.4582 1.33819 2.6299 0 .5523.44771 1 1 1h4.30493c.5523 0 1-.4477 1-1 0-.8598.3132-1.5847.6292-2.3161.2282-.5284.458-1.0601.5722-1.6486.2099-1.0819.8621-4.338.8696-4.3701.1649-.5899.4104-1.5844.551-2.22777l.7609-3.52348c.0055-.02572.0104-.05263.0147-.08055.0043-.0277.0079-.05639.0108-.0859.0542-.54561-.123-1.37162-.7639-1.37162-.3861 0-.7666.34932-.9465.86795l-.9221 3.13139c-.0395.11428-.0838.22404-.1314.33048-.0925.20729-.1969.40194-.2997.59271-.1241.23093-.2517.46843-.3529.71879l-.0125.0315c-.0049.0124-.0097.0254-.0143.0387-.0054.0155-.0107.0315-.0161.0477-.0456.1375-.096.2897-.2601.2897-.075 0-.2118-.0357-.2681-.2709-.0082-.0667-.0194-.1355-.0339-.20518-.0101-.04858-.0218-.09762-.035-.14674l-.0004-.00149c-.1132-.41879-.3422-.84317-.7072-1.03833-.0462-.02468-.0945-.0457-.145-.06257-.0242-.00807-.0489-.01518-.074-.0213l-.0134-.00315c-.068-.01545-.1396-.02368-.2149-.02368-.483 0-.7484.33599-.9684.85754-.0224.05306-.0446.10873-.0662.16546-.0356.09268-.1612.14258-.2343.14258-.1462-.00713-.2436-.09446-.2624-.22991-.0051-.03659-.0115-.07305-.0192-.10926l-.0004-.00172c-.0493-.22871-.1519-.44744-.2969-.62648-.184-.22716-.4363-.39042-.7344-.4291-.0273-.00353-.0549-.00602-.0829-.00743-.032-.00161-.0645-.0018-.0975-.0005-.5098.01783-.99339.38853-1.17144.89825-.03739.11834-.16463.25308-.29238.25308-.19145 0-.33356-.2496-.43981-.48442l-.01296-.02895c-.01635-.0369-.03182-.07315-.04645-.10772l-.01015-.024c-.0298-.0705-.05601-.13254-.07914-.17652l-.02305-.04413c-.13284-.25431-.2798-.53564-.41361-.80904-.02577-.05265-.05105-.105-.07564-.15681-.10866-.22886-.204-.44711-.26925-.63324l-1.03644-3.29892c-.17632-.50485-.72457-.99064-1.2726-.72537-.4114.20331-.63524.74338-.56506 1.30272.00257.02043.00552.04089.00888.06136.01107.06758.02647.13527.0464.20251l.005.0193c.0965.37219.19634.74099.29923 1.10727.42899 1.52725.91096 3.01043 1.42524 4.51119.10811.3155.21765.6318.32842.9494.1237.3546.10121.6469-.06372.8697-.09184.123-.39359.5471-.68784 1.0943-.03239.0616-.06583.1206-.09877.1787-.21719.383-.4122.7269-.13738 1.5269.05151.1527.10883.3042.17668.466.10002.2385.2229.4993.38371.819.28301.5632.6035.8661.94461 1.1869z" fill="#000" fill-rule="evenodd" class="svelte-1g1g48h"></path>
</svg>